<svg width="29" height="29" viewBox="0 0 29 29" fill="none" xmlns="http://www.w3.org/2000/svg">
<path d="M9.15269 24.4799L3.06233 25.8333L4.41574 19.7429C3.55203 18.1278 3.06233 16.2826 3.06233 14.3229C3.06233 7.96589 8.21572 2.8125 14.5728 2.8125C20.9297 2.8125 26.0832 7.96589 26.0832 14.3229C26.0832 20.6799 20.9297 25.8333 14.5728 25.8333C12.6131 25.8333 10.7679 25.3437 9.15269 24.4799ZM9.48601 22.0476L10.2382 22.4498C11.5599 23.1566 13.0367 23.5313 14.5728 23.5313C19.6584 23.5313 23.7811 19.4086 23.7811 14.3229C23.7811 9.23729 19.6584 5.11458 14.5728 5.11458C9.48712 5.11458 5.36442 9.23729 5.36442 14.3229C5.36442 15.859 5.73907 17.3358 6.44581 18.6574L6.84806 19.4096L6.09436 22.8013L9.48601 22.0476Z" fill="white"/>
</svg>
