<svg width="25" height="25" viewBox="0 0 25 25" fill="none" xmlns="http://www.w3.org/2000/svg">
<path d="M12.1458 3.32294C11.0458 3.32294 10.1458 4.22294 10.1458 5.32294C10.1458 6.42294 11.0458 7.32294 12.1458 7.32294C13.2458 7.32294 14.1458 6.42294 14.1458 5.32294C14.1458 4.22294 13.2458 3.32294 12.1458 3.32294ZM12.1458 17.3229C11.0458 17.3229 10.1458 18.2229 10.1458 19.3229C10.1458 20.4229 11.0458 21.3229 12.1458 21.3229C13.2458 21.3229 14.1458 20.4229 14.1458 19.3229C14.1458 18.2229 13.2458 17.3229 12.1458 17.3229ZM12.1458 10.3229C11.0458 10.3229 10.1458 11.2229 10.1458 12.3229C10.1458 13.4229 11.0458 14.3229 12.1458 14.3229C13.2458 14.3229 14.1458 13.4229 14.1458 12.3229C14.1458 11.2229 13.2458 10.3229 12.1458 10.3229Z" fill="white"/>
</svg>
