<svg width="36" height="35" viewBox="0 0 36 35" fill="none" xmlns="http://www.w3.org/2000/svg">
<path d="M17.9569 31.4699C10.0766 31.4699 3.68829 25.0816 3.68829 17.2013C3.68829 9.321 10.0766 2.93274 17.9569 2.93274C25.8372 2.93274 32.2255 9.321 32.2255 17.2013C32.2255 25.0816 25.8372 31.4699 17.9569 31.4699ZM13.5196 18.8719L13.5376 18.8605C14.3648 21.5913 14.7784 22.9568 14.7784 22.9568C14.9386 23.3999 15.1588 23.4789 15.4261 23.4428C15.6932 23.4066 15.835 23.262 16.0094 23.0938C16.0094 23.0938 16.5748 22.548 17.7058 21.4566L21.3455 24.1498C22.0087 24.5162 22.4876 24.3272 22.6523 23.5333L25.0177 12.3734C25.2788 11.3347 24.8208 10.9181 24.0153 11.2478L10.1277 16.6122C9.18024 16.993 9.18482 17.5231 9.9552 17.7594L13.5196 18.8719Z" fill="#808080"/>
</svg>
