<svg xmlns="http://www.w3.org/2000/svg" xmlns:xlink="http://www.w3.org/1999/xlink" viewBox="0 0 600 572.83"><defs><style>.cls-1{fill:url(#Degradado_sin_nombre);}.cls-2{fill:#fff;}.cls-3{fill:url(#Degradado_sin_nombre_2);}</style><linearGradient id="Degradado_sin_nombre" y1="3734.28" x2="595.94" y2="3734.28" gradientTransform="matrix(1, 0, 0, -1, 0, 4020.69)" gradientUnits="userSpaceOnUse"><stop offset="0" stop-color="#d44771"/><stop offset="1" stop-color="#5380d5"/></linearGradient><linearGradient id="Degradado_sin_nombre_2" x1="72.7" y1="3757.01" x2="600" y2="3757.01" gradientTransform="matrix(1, 0, 0, -1, 0, 4020.69)" gradientUnits="userSpaceOnUse"><stop offset="0" stop-color="#5380d5"/><stop offset="1" stop-color="#d44771"/></linearGradient></defs><g id="Capa_2" data-name="Capa 2"><g id="Capa_1-2" data-name="Capa 1"><path class="cls-1" d="M595,517.93a6,6,0,0,0-8.3-1.9l-16,10a11.13,11.13,0,0,0-11-9.8h-5.6a11.16,11.16,0,0,0-10.8,8.4h-3.6a9.57,9.57,0,0,0-8.9-6.1,10.48,10.48,0,0,0-3.6.7V57.53a12,12,0,0,0-12-12H82.1V23.13a9.71,9.71,0,0,0-3.5-7.4l7.3-4.6A6,6,0,1,0,79.5.93L6.8,46.43a10.63,10.63,0,0,0-1.1.9A12,12,0,0,0,0,57.53v503.3a12,12,0,0,0,12,12H515.3a10.07,10.07,0,0,0,2.5-.3,6.22,6.22,0,0,0,2.6-.9l.2-.1a13.24,13.24,0,0,0,2-1.2l70.6-44.1A6.08,6.08,0,0,0,595,517.93Z"/><path class="cls-2" d="M84.7,521.33a6,6,0,0,1-6-6V12a6,6,0,0,1,6-6H588a6,6,0,0,1,6,6v503.3a6,6,0,0,1-6,6Z"/><path class="cls-3" d="M588,12h0v503.2H84.8V12H588m0-12H84.7a12,12,0,0,0-12,12v503.3a12,12,0,0,0,12,12H588a12,12,0,0,0,12-12V12A12,12,0,0,0,588,0Z"/><polygon points="139.9 263.73 543.8 263.73 543.8 263.73 139.9 263.73"/><rect x="139.9" y="257.73" width="403.9" height="12"/><path d="M180.8,239.73a93.75,93.75,0,0,1-21.9-2.6,61.37,61.37,0,0,1-17.4-6.7l9.8-22.1a63.31,63.31,0,0,0,14.3,6,56.39,56.39,0,0,0,15.4,2.3,31.42,31.42,0,0,0,6.9-.6,7.51,7.51,0,0,0,3.7-1.7,3.37,3.37,0,0,0,1.2-2.6q0-2.4-2.7-3.9a34.34,34.34,0,0,0-7.1-2.4c-3-.6-6.2-1.3-9.7-2.1a83.56,83.56,0,0,1-10.6-2.9,40.58,40.58,0,0,1-9.8-4.8,22.19,22.19,0,0,1-7.1-7.8,24.21,24.21,0,0,1-2.7-12,26.29,26.29,0,0,1,4.7-15.2c3.1-4.6,7.8-8.2,14-11s14-4.1,23.2-4.1a83.37,83.37,0,0,1,18,1.9,58.85,58.85,0,0,1,15.9,5.9l-9.1,22a72.45,72.45,0,0,0-12.9-5,47.81,47.81,0,0,0-12.2-1.7,25.08,25.08,0,0,0-6.9.8,7.69,7.69,0,0,0-3.7,2.1,4.51,4.51,0,0,0-1.1,2.8c0,1.5.9,2.8,2.7,3.7a25.93,25.93,0,0,0,7.1,2.2c3,.6,6.2,1.2,9.8,1.9a78.82,78.82,0,0,1,10.6,2.8,39.89,39.89,0,0,1,9.7,4.8,21.88,21.88,0,0,1,7.1,7.7,23.67,23.67,0,0,1,2.7,11.8,26.44,26.44,0,0,1-4.7,15.1c-3.1,4.6-7.8,8.3-14,11.1S190.2,239.73,180.8,239.73Z"/><path d="M278.3,239.73a56.38,56.38,0,0,1-20-3.4,47.55,47.55,0,0,1-15.9-9.7,44.79,44.79,0,0,1-10.5-14.9,50.63,50.63,0,0,1,0-38,44.79,44.79,0,0,1,10.5-14.9,47.55,47.55,0,0,1,15.9-9.7,56.38,56.38,0,0,1,20-3.4c8.8,0,16.7,1.5,23.5,4.6a42.77,42.77,0,0,1,16.9,13.4l-19.2,17.1a33.63,33.63,0,0,0-8.8-7.8,21.81,21.81,0,0,0-10.9-2.8,23.52,23.52,0,0,0-8.6,1.5,16.9,16.9,0,0,0-6.6,4.5,22.13,22.13,0,0,0-4.3,7.1,29.58,29.58,0,0,0,0,18.6,20.16,20.16,0,0,0,4.3,7.1,17.66,17.66,0,0,0,6.6,4.5,23.52,23.52,0,0,0,8.6,1.5,21.08,21.08,0,0,0,10.9-2.8,29.15,29.15,0,0,0,8.8-7.8l19.2,17.1a45.13,45.13,0,0,1-16.9,13.3C294.9,238.23,287.1,239.73,278.3,239.73Z"/><path d="M327.4,237.73v-90h30.3v90Z"/><path d="M142.8,308.23v-4.1h22.8v4.1Zm6.6,32.6v-41.4a11,11,0,0,1,2.9-7.9c1.9-2,4.7-3,8.3-3a14,14,0,0,1,4.1.6,8.77,8.77,0,0,1,3.3,1.8l-1.7,3.7a6.77,6.77,0,0,0-2.5-1.4,9.43,9.43,0,0,0-3-.5,6.19,6.19,0,0,0-4.8,1.8,7.39,7.39,0,0,0-1.7,5.2v5.6l.1,2.3v33.2ZM174.8,296a3.54,3.54,0,0,1-2.6-1,3.63,3.63,0,0,1,0-5,3.88,3.88,0,0,1,5.2,0,3.41,3.41,0,0,1,1.1,2.5,3.54,3.54,0,0,1-1,2.6A5.12,5.12,0,0,1,174.8,296Zm-2.6,44.8V304h5v36.8Z"/><path d="M191.1,340.83v-51.9h5v51.9Z"/><path d="M225.6,341.23a20.66,20.66,0,0,1-10.1-2.4,16.87,16.87,0,0,1-6.8-6.7,19.44,19.44,0,0,1-2.5-9.7,20.44,20.44,0,0,1,2.3-9.7,17.35,17.35,0,0,1,15.6-9,18.47,18.47,0,0,1,9.2,2.3,16.67,16.67,0,0,1,6.3,6.6,20.56,20.56,0,0,1,2.3,9.8v1.5h-32v-3.7h29.3l-2,1.5a14.9,14.9,0,0,0-1.7-7.1,12.31,12.31,0,0,0-4.7-4.9,12.79,12.79,0,0,0-6.8-1.8,13,13,0,0,0-6.8,1.8,12.31,12.31,0,0,0-4.7,4.9,15.31,15.31,0,0,0-1.7,7.2v.8a13.83,13.83,0,0,0,1.9,7.4,13.18,13.18,0,0,0,5.2,5,15.53,15.53,0,0,0,7.6,1.8,16.81,16.81,0,0,0,6.3-1.2,13.62,13.62,0,0,0,5-3.6l2.8,3.2a15.21,15.21,0,0,1-6.1,4.5A20.22,20.22,0,0,1,225.6,341.23Z"/><path d="M262.1,341.23a27.15,27.15,0,0,1-8.6-1.3,18.29,18.29,0,0,1-6.4-3.3l2.2-3.9a21.66,21.66,0,0,0,5.7,2.9,22.51,22.51,0,0,0,7.4,1.2c3.5,0,6-.5,7.6-1.6a5.28,5.28,0,0,0,2.3-4.4,3.94,3.94,0,0,0-1.3-3.2,8.49,8.49,0,0,0-3.4-1.8,48,48,0,0,0-4.7-1c-1.7-.3-3.4-.6-5.1-1a21.64,21.64,0,0,1-4.7-1.6,8.92,8.92,0,0,1-3.4-3,8.45,8.45,0,0,1-1.3-5,9.35,9.35,0,0,1,1.7-5.4,11,11,0,0,1,4.9-3.7,20.67,20.67,0,0,1,7.9-1.4,28.2,28.2,0,0,1,7.1.9,20.15,20.15,0,0,1,5.9,2.5l-2.2,4a17.51,17.51,0,0,0-5.2-2.4,21,21,0,0,0-5.6-.7c-3.3,0-5.8.6-7.3,1.7a5,5,0,0,0-2.3,4.4,4.16,4.16,0,0,0,1.3,3.3,10.06,10.06,0,0,0,3.4,1.9,46.81,46.81,0,0,0,4.7,1.1c1.7.3,3.4.6,5.1,1a21.64,21.64,0,0,1,4.7,1.6,8,8,0,0,1,3.4,2.9,8.12,8.12,0,0,1,1.3,4.9,9.14,9.14,0,0,1-1.8,5.6,10.6,10.6,0,0,1-5.2,3.6A23.46,23.46,0,0,1,262.1,341.23Z"/></g></g></svg>