<svg width="36" height="35" viewBox="0 0 36 35" fill="none" xmlns="http://www.w3.org/2000/svg">
<path d="M3.68692 31.9807C3.68692 25.6764 8.79753 20.5658 15.1018 20.5658C21.4061 20.5658 26.5166 25.6764 26.5166 31.9807H3.68692ZM15.1018 19.139C10.3717 19.139 6.54064 15.3078 6.54064 10.5778C6.54064 5.84778 10.3717 2.01666 15.1018 2.01666C19.8318 2.01666 23.6629 5.84778 23.6629 10.5778C23.6629 15.3078 19.8318 19.139 15.1018 19.139ZM25.6075 22.3254C30.0099 23.4505 33.3198 27.3056 33.6275 31.9807H29.3704C29.3704 28.2569 27.9438 24.8662 25.6075 22.3254ZM22.7213 19.0775C25.051 16.9875 26.5166 13.9539 26.5166 10.5778C26.5166 8.55547 25.9907 6.65596 25.0682 5.0086C28.3363 5.66082 30.7972 8.54404 30.7972 12.0047C30.7972 15.9464 27.6046 19.139 23.6629 19.139C23.3437 19.139 23.0294 19.118 22.7213 19.0775Z" fill="#808080"/>
</svg>
