<svg width="56" height="56" viewBox="0 0 56 56" fill="none" xmlns="http://www.w3.org/2000/svg">
<g clip-path="url(#clip0_0_180)">
<mask id="mask0_0_180" style="mask-type:luminance" maskUnits="userSpaceOnUse" x="0" y="0" width="56" height="56">
<path d="M56 28C56 12.536 43.464 0 28 0C12.536 0 0 12.536 0 28C0 43.464 12.536 56 28 56C43.464 56 56 43.464 56 28Z" fill="white"/>
</mask>
<g mask="url(#mask0_0_180)">
<path d="M56 0H0V56H56V0Z" fill="white"/>
<path d="M14.039 42.639L49.5451 54.1757C54.4475 55.7685 59.7129 53.0857 61.3058 48.1833L72.8424 12.6772C74.4353 7.77481 71.7524 2.50937 66.8501 0.916497L31.3439 -10.6201C26.4416 -12.213 21.1761 -9.53014 19.5833 -4.62777L8.04662 30.8783C6.45375 35.7807 9.13662 41.0462 14.039 42.639Z" fill="#5380D5"/>
<path d="M29.8174 30.1899C33.1147 31.2973 36.1955 30.8643 39.0599 28.8909" stroke="white" stroke-width="1.55556" stroke-linecap="round"/>
<path d="M25.1004 24.5694C24.9808 23.7187 24.3666 23.1017 23.7286 23.1914C23.0905 23.2811 22.6702 24.0434 22.7897 24.8942C22.9093 25.7449 23.5235 26.3619 24.1615 26.2722C24.7996 26.1826 25.2199 25.4202 25.1004 24.5694Z" fill="white"/>
<path d="M43.5855 21.9716C43.4659 21.1208 42.8517 20.5038 42.2137 20.5935C41.5756 20.6832 41.1553 21.4455 41.2748 22.2963C41.3944 23.147 42.0086 23.764 42.6466 23.6743C43.2847 23.5847 43.705 22.8223 43.5855 21.9716Z" fill="white"/>
</g>
</g>
<defs>
<clipPath id="clip0_0_180">
<rect width="56" height="56" fill="white"/>
</clipPath>
</defs>
</svg>
