<svg width="62" height="62" viewBox="0 0 62 62" fill="none" xmlns="http://www.w3.org/2000/svg">
<circle cx="31" cy="31" r="30.5" fill="#171717" stroke="#212121"/>
<path d="M37.031 35.6168L41.3137 39.8995L39.8995 41.3137L35.6168 37.031C34.0769 38.263 32.124 39 30 39C25.032 39 21 34.968 21 30C21 25.032 25.032 21 30 21C34.968 21 39 25.032 39 30C39 32.124 38.263 34.0769 37.031 35.6168ZM35.0247 34.8748C36.2475 33.6146 37 31.8956 37 30C37 26.1325 33.8675 23 30 23C26.1325 23 23 26.1325 23 30C23 33.8675 26.1325 37 30 37C31.8956 37 33.6146 36.2475 34.8748 35.0247L35.0247 34.8748Z" fill="#808080"/>
</svg>
