<svg width="62" height="62" viewBox="0 0 62 62" fill="none" xmlns="http://www.w3.org/2000/svg">
<circle cx="31" cy="31" r="30.5" transform="matrix(-1 0 0 1 62 0)" fill="#171717" stroke="#212121"/>
<path d="M22.9951 41H38.9951C39.5474 41 39.9951 40.5523 39.9951 40V22C39.9951 21.4477 39.5474 21 38.9951 21H22.9951C22.4428 21 21.9951 21.4477 21.9951 22V40C21.9951 40.5523 22.4428 41 22.9951 41ZM33.9951 25H35.9951V27C35.9951 29.7614 33.7565 32 30.9951 32C28.2337 32 25.9951 29.7614 25.9951 27V25H27.9951V27C27.9951 28.6568 29.3383 30 30.9951 30C32.652 30 33.9951 28.6568 33.9951 27V25Z" fill="#808080"/>
</svg>
